<svg xmlns="http://www.w3.org/2000/svg"><symbol id="facebook" viewBox="0 0 155.14 155.14"><path  d="M89.584 155.139V84.378h23.742l3.562-27.585H89.584V39.184c0-7.984 2.208-13.425 13.67-13.425l14.595-.006V1.08C115.325.752 106.661 0 96.577 0 75.52 0 61.104 12.853 61.104 36.452v20.341H37.29v27.585h23.814v70.761h28.48z" data-original="#010002"/></symbol><symbol id="googleplus" viewBox="0 0 24 24"><path  d="M21.823 9h-2.187v2.177h-2.177v2.187h2.177v2.177h2.187v-2.177H24v-2.187h-2.177zM7.5 19.5c4.328 0 7.203-3.038 7.203-7.326 0-.491-.051-.87-.122-1.248h-7.08v2.578h4.257c-.174 1.095-1.289 3.233-4.257 3.233-2.557 0-4.645-2.118-4.645-4.737s2.087-4.738 4.645-4.738c1.463 0 2.435.624 2.988 1.156l2.036-1.954C11.214 5.237 9.526 4.5 7.5 4.5 3.356 4.5 0 7.856 0 12s3.356 7.5 7.5 7.5z" data-original="#000000"/></symbol><symbol id="linkedin" viewBox="0 0 100 100"><path  d="M90 90V60.7c0-14.4-3.1-25.4-19.9-25.4-8.1 0-13.5 4.4-15.7 8.6h-.2v-7.3H38.3V90h16.6V63.5c0-7 1.3-13.7 9.9-13.7 8.5 0 8.6 7.9 8.6 14.1v26H90zM11.3 36.6h16.6V90H11.3zM19.6 10c-5.3 0-9.6 4.3-9.6 9.6s4.3 9.7 9.6 9.7 9.6-4.4 9.6-9.7-4.3-9.6-9.6-9.6z" data-original="#000000"/></symbol><symbol id="twitter" viewBox="0 0 512 512"><path  d="M512 97.248c-19.04 8.352-39.328 13.888-60.48 16.576 21.76-12.992 38.368-33.408 46.176-58.016-20.288 12.096-42.688 20.64-66.56 25.408C411.872 60.704 384.416 48 354.464 48c-58.112 0-104.896 47.168-104.896 104.992 0 8.32.704 16.32 2.432 23.936-87.264-4.256-164.48-46.08-216.352-109.792-9.056 15.712-14.368 33.696-14.368 53.056 0 36.352 18.72 68.576 46.624 87.232-16.864-.32-33.408-5.216-47.424-12.928v1.152c0 51.008 36.384 93.376 84.096 103.136-8.544 2.336-17.856 3.456-27.52 3.456-6.72 0-13.504-.384-19.872-1.792 13.6 41.568 52.192 72.128 98.08 73.12-35.712 27.936-81.056 44.768-130.144 44.768-8.608 0-16.864-.384-25.12-1.44C46.496 446.88 101.6 464 161.024 464c193.152 0 298.752-160 298.752-298.688 0-4.64-.16-9.12-.384-13.568 20.832-14.784 38.336-33.248 52.608-54.496z" data-original="#000000"/></symbol><symbol id="arrow-right" viewBox="0 0 492 492"><path fill="#969696" d="M382.678 226.804L163.73 7.86C158.666 2.792 151.906 0 144.698 0s-13.968 2.792-19.032 7.86l-16.124 16.12c-10.492 10.504-10.492 27.576 0 38.064L293.398 245.9l-184.06 184.06c-5.064 5.068-7.86 11.824-7.86 19.028 0 7.212 2.796 13.968 7.86 19.04l16.124 16.116c5.068 5.068 11.824 7.86 19.032 7.86s13.968-2.792 19.032-7.86L382.678 265c5.076-5.084 7.864-11.872 7.848-19.088.016-7.244-2.772-14.028-7.848-19.108z" data-original="#000000"/></symbol><symbol id="map" viewBox="0 0 512 512"><path  d="M256 0C153.755 0 70.573 83.182 70.573 185.426c0 126.888 165.939 313.167 173.004 321.035 6.636 7.391 18.222 7.378 24.846 0 7.065-7.868 173.004-194.147 173.004-321.035C441.425 83.182 358.244 0 256 0zm0 278.719c-51.442 0-93.292-41.851-93.292-93.293S204.559 92.134 256 92.134s93.291 41.851 93.291 93.293-41.85 93.292-93.291 93.292z" data-original="#000000"/></symbol><symbol id="email" viewBox="0 0 512 512"><g ><path d="M298.789 313.693c-12.738 8.492-27.534 12.981-42.789 12.981-15.254 0-30.05-4.489-42.788-12.981L3.409 173.82A76.269 76.269 0 0 1 0 171.403V400.6c0 26.278 21.325 47.133 47.133 47.133h417.733c26.278 0 47.133-21.325 47.133-47.133V171.402a75.21 75.21 0 0 1-3.416 2.422z" data-original="#000000"/><path d="M20.05 148.858l209.803 139.874c7.942 5.295 17.044 7.942 26.146 7.942 9.103 0 18.206-2.648 26.148-7.942L491.95 148.858c12.555-8.365 20.05-22.365 20.05-37.475 0-25.981-21.137-47.117-47.117-47.117H47.117C21.137 64.267 0 85.403 0 111.408a44.912 44.912 0 0 0 20.05 37.45z" data-original="#000000"/></g></symbol><symbol id="phone" viewBox="0 0 64 64"><path d="M52.148 42.678l-6.479-4.527a5 5 0 0 0-6.963 1.238l-1.504 2.156c-2.52-1.69-5.333-4.05-8.014-6.732-2.68-2.68-5.04-5.493-6.73-8.013l2.154-1.504a4.96 4.96 0 0 0 2.064-3.225 4.98 4.98 0 0 0-.826-3.739l-4.525-6.478C20.378 10.5 18.85 9.69 17.24 9.69a4.69 4.69 0 0 0-1.628.291 8.97 8.97 0 0 0-1.685.828l-.895.63a6.782 6.782 0 0 0-.63.563c-1.092 1.09-1.866 2.472-2.303 4.104-1.865 6.99 2.754 17.561 11.495 26.301 7.34 7.34 16.157 11.9 23.011 11.9 1.175 0 2.281-.136 3.29-.406 1.633-.436 3.014-1.21 4.105-2.302.199-.199.388-.407.591-.67l.63-.899a9.007 9.007 0 0 0 .798-1.64c.763-2.06-.007-4.41-1.871-5.713z" data-original="#000000"/></symbol><symbol id="site" viewBox="0 0 682.67 682.67"><defs><clipPath id="a"><path d="M0 512h512V0H0z" data-original="#000000"/></clipPath></defs><g  stroke="#000" stroke-miterlimit="10" stroke-width="30" clip-path="url(#a)" transform="matrix(1.33333 0 0 -1.33333 0 682.667)"><path d="M497 256c0-133.101-107.899-241-241-241S15 122.899 15 256s107.899 241 241 241 241-107.899 241-241z" data-original="#000000"/><path d="M256 15c-66.55 0-120.5 107.899-120.5 241S189.45 497 256 497m0 0c66.55 0 120.5-107.899 120.5-241S322.55 15 256 15m0 482V15M15 256h482" data-original="#000000"/><path d="M444.115 406.658c-44.167-27.538-112.023-45.17-188.115-45.17-76.092 0-143.947 17.632-188.114 45.17m-.001-301.316c44.167 27.538 112.023 45.17 188.115 45.17 76.092 0 143.947-17.632 188.114-45.17" data-original="#000000"/></g></symbol><symbol id="cart" viewBox="0 0 512 512"><circle cx="226" cy="436" r="45" data-original="#000000"/><circle cx="377" cy="436" r="45" data-original="#000000"/><path d="M15 61.002h62.553l72.418 253.513-5.68 11.36c-14.956 29.88 6.755 65.127 40.254 65.127H437c8.291 0 15-6.709 15-15s-6.709-15-15-15H184.545c-11.139 0-18.419-11.729-13.418-21.709l4.146-8.291H437a15.012 15.012 0 0 0 14.429-10.884l60-210a15.04 15.04 0 0 0-2.446-13.154 15.048 15.048 0 0 0-11.982-5.962H117.323L103.29 41.885a15.013 15.013 0 0 0-14.429-10.884H15c-8.291 0-15 6.709-15 15s6.709 15.001 15 15.001z" data-original="#000000"/></symbol><symbol id="check" viewBox="0 0 511.99 511.99"><path fill="#8D7853" d="M500.088 83.681c-15.841-15.862-41.564-15.852-57.426 0L184.205 342.148 69.332 227.276c-15.862-15.862-41.574-15.862-57.436 0-15.862 15.862-15.862 41.574 0 57.436l143.585 143.585c7.926 7.926 18.319 11.899 28.713 11.899 10.394 0 20.797-3.963 28.723-11.899l287.171-287.181c15.862-15.851 15.862-41.574 0-57.435z" data-original="#000000"/></symbol><symbol id="usergroup" viewBox="0 0 80.13 80.13"><path fill="#8D7853" d="M48.355 17.922c3.705 2.323 6.303 6.254 6.776 10.817a11.69 11.69 0 0 0 4.966 1.112c6.491 0 11.752-5.261 11.752-11.751 0-6.491-5.261-11.752-11.752-11.752-6.429.002-11.644 5.169-11.742 11.574zm-7.699 24.062c6.491 0 11.752-5.262 11.752-11.752s-5.262-11.751-11.752-11.751c-6.49 0-11.754 5.262-11.754 11.752s5.264 11.751 11.754 11.751zm4.985.801h-9.972c-8.297 0-15.047 6.751-15.047 15.048v12.195l.031.191.84.263c7.918 2.474 14.797 3.299 20.459 3.299 11.059 0 17.469-3.153 17.864-3.354l.785-.397h.084V57.833c.003-8.297-6.747-15.048-15.044-15.048zm19.443-12.132h-9.895a14.483 14.483 0 0 1-4.47 10.088c7.375 2.193 12.771 9.032 12.771 17.11v3.758c9.77-.358 15.4-3.127 15.771-3.313l.785-.398h.084V45.699c0-8.296-6.75-15.046-15.046-15.046zm-45.049-.8c2.299 0 4.438-.671 6.25-1.814a14.544 14.544 0 0 1 5.467-9.276c.012-.22.033-.438.033-.66 0-6.491-5.262-11.752-11.75-11.752-6.492 0-11.752 5.261-11.752 11.752 0 6.488 5.26 11.75 11.752 11.75zm10.554 10.888a14.492 14.492 0 0 1-4.467-10.032c-.367-.027-.73-.056-1.104-.056h-9.971C6.75 30.653 0 37.403 0 45.699v12.197l.031.188.84.265c6.352 1.983 12.021 2.897 16.945 3.185v-3.683c.002-8.078 5.396-14.915 12.773-17.11z" data-original="#000000"/></symbol><symbol id="hart" viewBox="0 0 391.84 391.84"><path fill="#8D7853" d="M285.257 35.528c58.743.286 106.294 47.836 106.58 106.58 0 107.624-195.918 214.204-195.918 214.204S0 248.165 0 142.108c0-58.862 47.717-106.58 106.58-106.58a105.534 105.534 0 0 1 89.339 48.065 106.578 106.578 0 0 1 89.338-48.065z" data-original="#d7443e"/></symbol><symbol id="gear" viewBox="0 0 512 512"><path d="M500.633 211.454l-58.729-14.443a193.856 193.856 0 0 0-13.55-32.256c8.818-14.678 27.349-45.571 27.349-45.571a15.001 15.001 0 0 0-2.256-18.325l-42.422-42.422a14.958 14.958 0 0 0-18.325-2.256L347.055 83.53a193.24 193.24 0 0 0-32.065-13.433l-14.443-58.729A14.996 14.996 0 0 0 286 0h-60c-6.885 0-12.891 4.688-14.546 11.367 0 0-10.005 40.99-14.429 58.715a192.571 192.571 0 0 0-34.043 14.502l-47.329-28.403c-5.918-3.516-13.447-2.607-18.325 2.256l-42.422 42.422a15.001 15.001 0 0 0-2.256 18.325l29.268 48.882a193.296 193.296 0 0 0-11.821 28.901l-58.729 14.487A14.994 14.994 0 0 0 0 226v60c0 6.885 4.688 12.891 11.367 14.546l58.744 14.443c3.56 11.294 8.188 22.266 13.799 32.798l-26.191 43.652a15.001 15.001 0 0 0 2.256 18.325l42.422 42.422c4.849 4.849 12.407 5.771 18.325 2.256 0 0 29.37-17.607 43.755-26.221a193.254 193.254 0 0 0 32.549 13.696l14.429 58.715C213.109 507.313 219.115 512 226 512h60a14.995 14.995 0 0 0 14.546-11.367l14.429-58.715a190.535 190.535 0 0 0 33.281-14.136c14.78 8.862 44.443 26.66 44.443 26.66 5.903 3.53 13.462 2.622 18.325-2.256l42.422-42.422a15.001 15.001 0 0 0 2.256-18.325l-26.968-44.927a192.1 192.1 0 0 0 13.169-31.523l58.729-14.443A14.993 14.993 0 0 0 512 286v-60a14.994 14.994 0 0 0-11.367-14.546zM256 361c-57.891 0-105-47.109-105-105s47.109-105 105-105 105 47.109 105 105-47.109 105-105 105z" data-original="#000000"/></symbol></svg>